/* XPM */
static char * bitgem80_xpm[] = {
"81 80 180 2",
"  	c None",
". 	c #143391",
"+ 	c #173BA6",
"@ 	c #173AA4",
"# 	c #1739A1",
"$ 	c #16389D",
"% 	c #16389F",
"& 	c #16379B",
"* 	c #16379A",
"= 	c #153698",
"- 	c #153594",
"; 	c #14328D",
"> 	c #14338F",
", 	c #13318C",
"' 	c #13318A",
") 	c #133086",
"! 	c #122E81",
"~ 	c #122E83",
"{ 	c #122D7F",
"] 	c #86A0ED",
"^ 	c #F2F5FD",
"/ 	c #E4EAFB",
"( 	c #E6EBFB",
"_ 	c #E8EDFB",
": 	c #EBEFFC",
"< 	c #EDF1FC",
"[ 	c #DFE6FA",
"} 	c #F0F3FD",
"| 	c #EFF2FC",
"1 	c #F4F6FD",
"2 	c #F6F8FD",
"3 	c #F7F9FE",
"4 	c #FDFDFE",
"5 	c #2B58E0",
"6 	c #1A42B9",
"7 	c #BECCF5",
"8 	c #1F4EDA",
"9 	c #2957E0",
"0 	c #2755E0",
"a 	c #2D5AE0",
"b 	c #153596",
"c 	c #436BE4",
"d 	c #DAE2F9",
"e 	c #6A8AE9",
"f 	c #325EE1",
"g 	c #B2C2F3",
"h 	c #F9FAFE",
"i 	c #A7BAF2",
"j 	c #BAC9F5",
"k 	c #829DED",
"l 	c #153493",
"m 	c #5579E6",
"n 	c #BCCAF5",
"o 	c #2554E0",
"p 	c #416AE3",
"q 	c #5A7DE7",
"r 	c #94ABEF",
"s 	c #4069E3",
"t 	c #2E5BE1",
"u 	c #5176E6",
"v 	c #1940B4",
"w 	c #9DB2F0",
"x 	c #ABBDF3",
"y 	c #2251DF",
"z 	c #9EB3F1",
"A 	c #2050DF",
"B 	c #5378E6",
"C 	c #587CE7",
"D 	c #D5DEF8",
"E 	c #C3D0F6",
"F 	c #718FEA",
"G 	c #B7C6F4",
"H 	c #CCD7F7",
"I 	c #9BB0F0",
"J 	c #99AFF0",
"K 	c #7492EB",
"L 	c #90A8EF",
"M 	c #D1DBF8",
"N 	c #3560E2",
"O 	c #2453DF",
"P 	c #5C7FE7",
"Q 	c #345FE1",
"R 	c #5F81E8",
"S 	c #97ADF0",
"T 	c #FBFCFE",
"U 	c #3762E2",
"V 	c #3963E2",
"W 	c #C7D3F7",
"X 	c #A2B6F1",
"Y 	c #B3C3F4",
"Z 	c #D3DCF8",
"` 	c #8DA5EE",
" .	c #CAD5F7",
"..	c #4F75E6",
"+.	c #DDE4FA",
"@.	c #1B44C0",
"#.	c #1B45C2",
"$.	c #7D99EC",
"%.	c #C8D4F7",
"&.	c #305CE1",
"*.	c #6687E9",
"=.	c #B0C1F3",
"-.	c #3C66E3",
";.	c #A0B4F1",
">.	c #95ACF0",
",.	c #AEBFF3",
"'.	c #486FE5",
").	c #456DE4",
"!.	c #ACBEF3",
"~.	c #849EED",
"{.	c #122F85",
"].	c #C1CEF6",
"^.	c #7291EB",
"/.	c #A4B7F1",
"(.	c #C5D1F6",
"_.	c #E1E7FA",
":.	c #6888E9",
"<.	c #BFCDF6",
"[.	c #E9EEFC",
"}.	c #CFD9F8",
"|.	c #7895EB",
"1.	c #6C8BE9",
"2.	c #E3E9FB",
"3.	c #89A2EE",
"4.	c #809BED",
"5.	c #6183E8",
"6.	c #8FA7EF",
"7.	c #4A71E5",
"8.	c #6D8CEA",
"9.	c #1D49CE",
"0.	c #183EAF",
"a.	c #A9BBF2",
"b.	c #183DAD",
"c.	c #D8E0F9",
"d.	c #1F4DD9",
"e.	c #DCE3F9",
"f.	c #D6DFF9",
"g.	c #B5C5F4",
"h.	c #A5B8F2",
"i.	c #1F4FDE",
"j.	c #92A9EF",
"k.	c #4E74E5",
"l.	c #577BE7",
"m.	c #5D80E8",
"n.	c #6586E8",
"o.	c #476EE4",
"p.	c #4C72E5",
"q.	c #1A42BB",
"r.	c #1C46C5",
"s.	c #133088",
"t.	c #102975",
"u.	c #112C7E",
"v.	c #1A43BD",
"w.	c #193FB0",
"x.	c #173AA2",
"y.	c #1B44BE",
"z.	c #7693EB",
"A.	c #1C47C7",
"B.	c #112C7C",
"C.	c #1C46C3",
"D.	c #7996EC",
"E.	c #CDD8F8",
"F.	c #183DAB",
"G.	c #87A1EE",
"H.	c #193FB2",
"I.	c #3E67E3",
"J.	c #1D49CC",
"K.	c #112B7A",
"L.	c #3B65E3",
"M.	c #6384E8",
"N.	c #183CA9",
"O.	c #1E4CD7",
"P.	c #183CA8",
"Q.	c #1E4BD3",
"R.	c #7F9AEC",
"S.	c #1D4AD0",
"T.	c #B8C7F5",
"U.	c #8BA4EE",
"V.	c #1D48CB",
"W.	c #1F4EDC",
"                            . + @ @ @ @ # $ % % % % % & * * * * * * = - - - - - - . ; > > > > > , ' ' ' ' ' ' ' ) ) ) ) ) ) ) ! ~ ~ { $                           ",
"                          ' ] ^ / / / / ( _ _ _ _ _ ( _ _ _ _ _ _ _ : < < < < < < [ } | | | | | } ^ ^ ^ ^ ^ ^ 1 1 1 1 1 1 1 2 3 3 2 4 5                           ",
"                          6 4 7 8 9 9 9 9 9 9 9 9 9 9 9 9 9 9 9 9 9 9 9 9 9 9 9 0 _ 0 5 5 5 5 5 5 5 5 5 5 5 5 5 5 5 5 5 5 5 a a 5 9 : 1 b                         ",
"                        ) _ c d e a f f f f f f f f f f f f f f f f f f f f f 0 g h i 0 f f f f f f f f f f f f f f f f f f f f 0 j ] k ] l                       ",
"                      b m n o p 4 o f f f f f f f f f f f f f f f f f f f f 5 q h r 4 s t f f f f f f f f f f f f f f f f f f a u | 0 0 4 v                       ",
"                      $ 4 a f 9 w x y f f f f f f f f f f f f f f f f f f f 0 3 i z g d A f f f f f f f f f f f f f f f f f f y } B a f C D )                     ",
"                    ) E F t f f 0 h c a f f f f f f f f f f f f f f f f f y G H I z J < K a f f f f f f f f f f f f f f f f 0 L G 0 f f 0 M N                     ",
"                  @ O [ o f f f t P _ y Q f f f f f f f f f f f f f f f 5 R h S z z z z T t f f f f f f f f f f f f f f f f U 4 a f f f Q f 4 =                   ",
"                  > 4 V Q f f f f y W k a f f f f f f f f f f f f f f Q 9 h X z z z z w H Y o f f f f f f f f f f f f f f y Z F a f f f f 0 L L ,                 ",
"                ; ` J o f f f f f f f 4 Q Q f f f f f f f f f f f f f 0 n  .I z z z z z S 4 ..f f f f f f f f f f f f f t e +.y f f f f f f y 2 @.                ",
"                #.2 y f f f f f f f a $.%.0 f f f f f f f f f f f f &.*.h S z z z z z z z =._ o f f f f f f f f f f f Q a 4 -.f f f f f f f a B [ '               ",
"              ' _ ..a f f f f f f f f y _ P f f f f f f f f f f f f t 4 ;.z z z z z z z z >._ k a f f f f f f f f f f 9 ,.J 9 f f f f f f f f y E '.*             ",
"            > C j 0 f f f f f f f f f Q ).h O f f f f f f f f f f y 7 H w z z z z z z z z z z 4 a f f f f f f f f f f c 3 9 f f f f f f f f f f f 4 .             ",
"            & 4 a f f f f f f f f f f f o !.J 0 f f f f f f f f a *.3 S z z z z z z z z z z I  .G y f f f f f f f f y < q f f f f f f f f f f f a ~.X {.          ",
"          ~ ].^.a f f f f f f f f f f f f 0 4 s &.f f f f f f f a 4 /.z z z z z z z z z z z z S 4 u a f f f f f f 5 k (.y f f f f f f f f f f f f O 1 #.          ",
"        & 0 _.y f f f f f f f f f f f f f 5 :.[ y f f f f f f y <.%.I z z z z z z z z z z z z w ,._ y f f f f f f Q 4 t f f f f f f f f f f f f f f ..[.)         ",
"        , 4 V f f f f f f f f f f f f f f f y }.|.5 f f f f 5 1.2 >.z z z z z z z z z z z z z z I 2.3.0 f f f f y %.4.0 f f f f f f f f f f f f f f o 7 m =       ",
"      ; S L 5 f f f f f f f f f f f f f f f t N 4 a f f f f t 4 ;.z z z z z z z z z z z z z z z z w 4 f f f f a 5./ y f f f f f f f f f f f f f f f f a 4 $       ",
"      @.3 y f f f f f f f f f f f f f f f f f 0 6.j o f f y W (.I z z z z z z z z z z z z z z z z w <.E y f f 0 h c a f f f f f f f f f f f f f f f f a |.g ,     ",
"    ' < 7.f f f f f f f f f f f f f f f f f f f y } B a 5 8.1 >.z z z z z z z z z z z z z z z z z z S h q f 0 z i o f f f f f f f f f f f f f f f f f f y < 9.0.  ",
"  l C n 9 f f f f f f f f f f f f f f f f f f f f B | O t T ;.z z z z z z z z z z z z z z z z z z z z a.< y -.4 5 f f f f f f f f f f f f f f f f f f f Q '.^ ~   ",
"  b.3 o a 5 5 5 9 5 9 9 9 9 9 9 9 9 9 0 0 0 0 0 0 8 !.] <.j S I I I I I I I I J J J J J J S S S S S S r c.k M m A y y y o o o o o o o o o 0 0 0 0 0 0 0 0 d.x P ' ",
"l 3.4 2./ / / _._._._._._.e.e.e.d d d f.f.f.D f.D Z D 4 4 < < < < < : : [.[.[.[._ [._ _ _ _ _ _ ( ( ( ( / 4 4 g.<.j j j G G G Y Y Y ,.,.,.x x x h.i h.;.;.;.S 4 i.",
"  ; 1 h.z z z z z z ;.;.;.X /./.h.h.h.i i i a.a.a.x i f.j.c 7.k.k.......u B B B l.l.q q q P m.P R R R n.C ( p 0 o 9 t a &.f f Q N Q -.-.-.p p p o.o.o.p.p.p.q 4 q.",
"  # r.4 S z z z z z z z z z z z z z z z z z z z z z z ,. .A t t t t t t t t t a a a a a a a a a a a a t a < s.> > ; ; ; ; ; ; ; ; ; ; ; ; ; ; ; ; ; ; , > t.}.o   ",
"    ' |.+.I z z z z z z z z z z z z z z z z z z z z z z | 5 f f f f f f f f f f f f f f f f f f f f f Q 7.%.u.b b b b b b b b b b b b b b b b b b b b b ' e >.    ",
"      {.+.=.z z z z z z z z z z z z z z z z z z z z z >.^ o.f f f f f f f f f f f f f f f f f f f f f a S R > b b b b b b b b b b b b b b b b b b b b b v.} .     ",
"      w.x.4 I z z z z z z z z z z z z z z z z z z z z I 2.K f f f f f f f f f f f f f f f f f f f f f y +.@.= b b b b b b b b b b b b b b b b b b b = ' 4 y.      ",
"        ; B < S z z z z z z z z z z z z z z z z z z z z j Y 0 f f f f f f f f f f f f f f f f f f f f 5 ( & b b b b b b b b b b b b b b b b b b b b ! ;.R         ",
"          ~ (.<.I z z z z z z z z z z z z z z z z z z z X < A f f f f f f f f f f f f f f f f f f f f o.M { b b b b b b b b b b b b b b b b b b b , o }.)         ",
"            b 4 z z z z z z z z z z z z z z z z z z z z I ^ s f f f f f f f f f f f f f f f f f f f &.~.z.' b b b b b b b b b b b b b b b b b b - = 4 @           ",
"            b 9 T >.z z z z z z z z z z z z z z z z z z S _ *.f f f f f f f f f f f f f f f f f f f o D A.* b b b b b b b b b b b b b b b b b b B.D &.            ",
"              ~ w M I z z z z z z z z z z z z z z z z z I W h.5 f f f f f f f f f f f f f f f f f f O | = * b b b b b b b b b b b b b b b b b {.R J               ",
"                ' 3 x z z z z z z z z z z z z z z z z z z h.( y f f f f f f f f f f f f f f f f f f o.}.{ b b b b b b b b b b b b b b b b b > 6 T >               ",
"                # C.4 S z z z z z z z z z z z z z z z z z I h f f f f f f f f f f f f f f f f f f t D.] ! b b b b b b b b b b b b b b b b b {.^ C.                ",
"                  ' z.[ I z z z z z z z z z z z z z z z z S _ R a f f f f f f f f f f f f f f f f 9 W d.> b b b b b b b b b b b b b b b b ! I n.                  ",
"                    ' _ ,.z z z z z z z z z z z z z z z z I M L a f f f f f f f f f f f f f f f f A 2 = b b b b b b b b b b b b b b b b . i.D >                   ",
"                    w.w.4 I z z z z z z z z z z z z z z z z !.E.0 f f f f f f f f f f f f f f f f s D s.b b b b b b b b b b b b b b b = . 4 F.                    ",
"                      b u < S z z z z z z z z z z z z z z z I 4 y f f f f f f f f f f f f f f f a F >.{ b b b b b b b b b b b b b b b { }.Q                       ",
"                        ! (.j w z z z z z z z z z z z z z z I < u a f f f f f f f f f f f f f f 5 g.Q ' b b b b b b b b b b b b b b ' m h.;                       ",
"                          b 4 ;.z z z z z z z z z z z z z z I Z G.5 f f f f f f f f f f f f f f y 2 b b b b b b b b b b b b b b b b H.4 .                         ",
"                          l 0 h S z z z z z z z z z z z z z w g.<.0 f f f f f f f f f f f f f f N [ ) b b b b b b b b b b b b b b ) 2 r.                          ",
"                            ~ w E.I z z z z z z z z z z z z z I ^ 0 f f f f f f f f f f f f f a F S {.b b b b b b b b b b b b b ~ j.^.                            ",
"                              {.1 a.z z z z z z z z z z z z z I h I.t f f f f f f f f f f f f 9 ,.s ' b b b b b b b b b b b b > i.+.)                             ",
"                              @ J.4 >.z z z z z z z z z z z z I c.D.9 f f f f f f f f f f f f 0 [.F.. b b b b b b b b b b b - , 4 F.                              ",
"                                ; $.2.>.z z z z z z z z z z z w n Y o f f f f f f f f f f f f 9 ^ ~ b b b b b b b b b b b b K.E L.                                ",
"                                  ' _ =.z z z z z z z z z z z z X _.9 f f f f f f f f f f f a M.h.) b b b b b b b b b b b ~ u !.,                                 ",
"                                    b.4 J z z z z z z z z z z z S 4 t f f f f f f f f f f f 0 i k.' b b b b b b b b b b = N.4 b                                   ",
"                                    b u : J z z z z z z z z z z I 2.:.5 f f f f f f f f f f 0 +.q.. b b b b b b b b b = {.} J.                                    ",
"                                      ) W j w z z z z z z z z z z <.x y f f f f f f f f f f 5 T { b b b b b b b b b b {.3.z.                                      ",
"                                        - 4 z z z z z z z z z z z a.c.0 f f f f f f f f f a l.g.{.b b b b b b b b b l O._ '                                       ",
"                                        l 0 3 I z z z z z z z z z S 2 f N f f f f f f f f 0 X B ; b b b b b b b b b . 4 P.                                        ",
"                                          ) h.H I z z z z z z z z I | ..Q f f f f f f f f y Z J.. b b b b b b b b u.<.p                                           ",
"                                            ; 3 i z z z z z z z z z  .S 5 f f f f f f f Q a 2 ' b b b b b b b b s.).j )                                           ",
"                                            $ J.4 >.z z z z z z z z !.D y f f f f f f f N o.H ! b b b b b b b . P.4 b                                             ",
"                                              ' D.+.S z z z z z z z w < f Q f f f f f f a >.M.; b b b b b b b u.< Q.                                              ",
"                                                ) _.Y w z z z z z z S 1 o.N f f f f f f y f.9.b b b b b b b ~ 4.R.,                                               ",
"                                                  b.4 I z z z z z z w M ] a f f f f f f a [.= b b b b b b , S.< s.                                                ",
"                                                  l ..< I z z z z z z ,.E.y f f f f f Q p e.K.b b b b b * , 4 b.                                                  ",
"                                                    {.W j z z z z z z z | a f f f f f t ~.z., b b b b b {.j ).                                                    ",
"                                                      # 4 w z z z z z >.1 c f f f f f o M Q.= b b b b , -.7 .                                                     ",
"                                                      # 5 h >.z z z z I 2.8.f f f f f 0 _ x.b b b b b # 4 =                                                       ",
"                                                        s.h. .I z z z z T.G 0 f f f f s e.{ b b b b { ( O.                                                        ",
"                                                          ' 3 i z z z z X | y f f f f ^.6.) b b b {.z.U.s.                                                        ",
"                                                            V.4 S z z z I ^ s f f f 0 W W.b b b . r.3 )                                                           ",
"                                                            s.D.e.I z z S _ *.f f f y | % * b b , 4 w.                                                            ",
"                                                              ~ [ =.w z I W h.5 f f s f.{.b b { g u                                                               ",
"                                                                0.4 I z z /.( y f f 1.I u.b ' -.W ~                                                               ",
"                                                                - B | >.z w h t f 5 g N ' l * 4 $                                                                 ",
"                                                                  ' %.7 z S _ P t A 1 $ = K.+.i.                                                                  ",
"                                                                    % 4 I I M L 5 N [ ' {.^.L ;                                                                   ",
"                                                                    x.t 3 >.!.M y *.i u.@.^ .                                                                     ",
"                                                                      ' h. .S 4 W./.p.B.4 v                                                                       ",
"                                                                        , 3 z < c [.. i q l                                                                       ",
"                                                                          A.T H k [ O D {                                                                         ",
"                                                                          ) z.: [.!.T b                                                                           ",
"                                                                            , [ 4 4 W.                                                                            ",
"                                                                              H.4 U.'                                                                             ",
"                                                                              $ -.&                                                                               ",
"                                                                                b                                                                                 "};
