/* XPM */
static char * bitgem32_xpm[] = {
"32 32 118 2",
"  	c None",
". 	c #4069E3",
"+ 	c #6183E8",
"@ 	c #5579E6",
"# 	c #5378E6",
"$ 	c #5176E6",
"% 	c #6586E8",
"& 	c #4E74E5",
"* 	c #5A7DE7",
"= 	c #7492EB",
"- 	c #7693EB",
"; 	c #2E5BE1",
"> 	c #325EE1",
", 	c #305CE1",
"' 	c #2755E0",
") 	c #5D80E8",
"! 	c #A9BBF2",
"~ 	c #436BE4",
"{ 	c #2B58E0",
"] 	c #6384E8",
"^ 	c #829DED",
"/ 	c #4C72E5",
"( 	c #577BE7",
"_ 	c #4A71E5",
": 	c #3762E2",
"< 	c #9BB0F0",
"[ 	c #BCCAF5",
"} 	c #809BED",
"| 	c #6D8CEA",
"1 	c #486FE5",
"2 	c #587CE7",
"3 	c #3E67E3",
"4 	c #718FEA",
"5 	c #2D5AE0",
"6 	c #7B97EC",
"7 	c #B0C1F3",
"8 	c #A7BAF2",
"9 	c #ABBDF3",
"0 	c #345FE1",
"a 	c #2453DF",
"b 	c #5F81E8",
"c 	c #5C7FE7",
"d 	c #2957E0",
"e 	c #6888E9",
"f 	c #AEBFF3",
"g 	c #A5B8F2",
"h 	c #97ADF0",
"i 	c #90A8EF",
"j 	c #6C8BE9",
"k 	c #3963E2",
"l 	c #4F75E6",
"m 	c #99AFF0",
"n 	c #ACBEF3",
"o 	c #9EB3F1",
"p 	c #B3C3F4",
"q 	c #6687E9",
"r 	c #3C66E3",
"s 	c #7291EB",
"t 	c #456DE4",
"u 	c #3560E2",
"v 	c #7895EB",
"w 	c #B7C6F4",
"x 	c #9DB2F0",
"y 	c #416AE3",
"z 	c #2554E0",
"A 	c #476EE4",
"B 	c #2050DF",
"C 	c #2251DF",
"D 	c #B2C2F3",
"E 	c #86A0ED",
"F 	c #94ABEF",
"G 	c #C1CEF6",
"H 	c #B5C5F4",
"I 	c #C7D3F7",
"J 	c #A4B7F1",
"K 	c #A0B4F1",
"L 	c #B8C7F5",
"M 	c #8FA7EF",
"N 	c #A2B6F1",
"O 	c #1F4EDC",
"P 	c #1A43BD",
"Q 	c #112C7E",
"R 	c #122E83",
"S 	c #122F85",
"T 	c #122D7F",
"U 	c #849EED",
"V 	c #183DAD",
"W 	c #13318C",
"X 	c #153698",
"Y 	c #13318A",
"Z 	c #1F4EDA",
"` 	c #183CA8",
" .	c #153596",
"..	c #1A42B9",
"+.	c #14338F",
"@.	c #16379B",
"#.	c #1D49CE",
"$.	c #133088",
"%.	c #143391",
"&.	c #14328D",
"*.	c #1F4FDE",
"=.	c #6A8AE9",
"-.	c #1B44C0",
";.	c #1941B6",
">.	c #1739A1",
",.	c #153493",
"'.	c #3B65E3",
").	c #1D48CB",
"!.	c #1D4AD0",
"~.	c #16379A",
"{.	c #183CA9",
"].	c #7F9AEC",
"^.	c #92A9EF",
"/.	c #153594",
"(.	c #7D99EC",
"_.	c #122E81",
":.	c #1A41B7",
"<.	c #1E4BD2",
"          . + @ # # # # # # $ # % & $ $ # $ $ $ $ @ *           ",
"          = - ; ; > > > > , ' ) ! ~ { > > > > > ' ] ^ /         ",
"        ( _ ] * ' > ; ; ; { : < [ } ' ; ; ; , { ~ | 1 )         ",
"      . 2 ; 3 4 . 5 > > > ' 6 7 8 9 # ' 0 > > 5 4 $ a $ b       ",
"      c ~ 5 d ) e { > 0 ' @ f g h f i > 5 0 ' ( j > 5 k *       ",
"    / @ 5 > > 0 4 l d 5 k m n < o o p q ' { r s t { 0 d & c     ",
"    c k , 0 u { l - 0 ' v w o o o x 9 g y z ] q { 0 0 > > c A   ",
"  A ~ B d ' ' ' C ) A l 9 o < < < < h D 4 3 e d z d ' d B k l   ",
"~ E # 2 2 ( ( ( $ * F n G p H H H H H w I x = ( b b b + + c ^ ( ",
". D ! g g g g g J K L g 4 v v v v v v v M } 5 , > > > > 0 ; _ j ",
"  e 7 K o o o o o N ! v O C z z z z a z $ P Q R S S S S T S B   ",
"    U f < o o o o x 7 m 5 > 0 0 0 0 > : j V W X X X X X Y Z %   ",
"    y x g x o o o x 9 K 3 5 > > > > > > ( ` Y  . . . .Y ..l     ",
"      q 9 N o o o o J J ] { > > > > ; 1 u X +. . . .W @.r       ",
"        U 9 o o o o o 9 6 ' > > > > 5 q #.$. . . .%.&.*.=.      ",
"        u x g o o o x p M ' > > > > ; ] P S  . . .W -.2         ",
"          b 9 N o o x 9 h . 5 > > > > l ;.Y  . .&.>..           ",
"            ^ 9 x o o o N * ' 0 > 5 l : @.+. .,.&.'             ",
"            '.m g x o < D j z 0 0 d % O S  . .Y ).$             ",
"              ) ! K o < w } d > > { 2 !.S ~.W {.t               ",
"                ].9 x x ! ^.y 5 > k 1 ..W %. .;                 ",
"                > m 8 x o g # ' d @ r ,./.W !.2                 ",
"                  * 8 g < w b z ' * , R &.V 1                   ",
"                    (.! x H = 5 ' / B _.~.0                     ",
"                      h g g M k 0 / :.S Z #                     ",
"                      * ! g g . t l _.:.A                       ",
"                        v 9 H & . k %.'.                        ",
"                          ^.[ j y Z Z #                         ",
"                          2 g K / <.A                           ",
"                            (.w | >                             ",
"                              D J 0                             ",
"                              ( =.                              "};
