/* XPM */
static char * bitgem32_xpm[] = {
"32 32 437 2",
"  	c None",
". 	c #B86967",
"+ 	c #B65B53",
"@ 	c #A52A1B",
"# 	c #9D0D00",
"$ 	c #9E0700",
"% 	c #A10800",
"& 	c #A61000",
"* 	c #B42C1F",
"= 	c #C4564C",
"- 	c #D78683",
"; 	c #E7B6B2",
"> 	c #FFFFFF",
", 	c #E7BBB8",
"' 	c #9C2B25",
") 	c #7D0000",
"! 	c #8B0900",
"~ 	c #920D00",
"{ 	c #9B1000",
"] 	c #A11000",
"^ 	c #A41000",
"/ 	c #A70F00",
"( 	c #A90F00",
"_ 	c #AB0E00",
": 	c #AC0E00",
"< 	c #AE0E00",
"[ 	c #B10800",
"} 	c #BE1A0A",
"| 	c #DD7972",
"1 	c #E09490",
"2 	c #B61D15",
"3 	c #8C0B06",
"4 	c #820400",
"5 	c #8D0800",
"6 	c #990B00",
"7 	c #A21000",
"8 	c #AA1000",
"9 	c #AC0F00",
"0 	c #AE0F00",
"a 	c #B10E00",
"b 	c #B10D00",
"c 	c #B20C00",
"d 	c #B40E00",
"e 	c #B81100",
"f 	c #C21400",
"g 	c #CD2716",
"h 	c #FBF0EE",
"i 	c #DD5950",
"j 	c #EEBFBC",
"k 	c #D25953",
"l 	c #B6251D",
"m 	c #8C0B05",
"n 	c #850500",
"o 	c #920800",
"p 	c #9C0C00",
"q 	c #A50F00",
"r 	c #A81100",
"s 	c #AB1100",
"t 	c #AD0F00",
"u 	c #AF1000",
"v 	c #B20E00",
"w 	c #B20D00",
"x 	c #B40D00",
"y 	c #B70E00",
"z 	c #BA1000",
"A 	c #BD1201",
"B 	c #C91803",
"C 	c #DC5242",
"D 	c #EDC1C0",
"E 	c #CA2D22",
"F 	c #D3382D",
"G 	c #F3DAD9",
"H 	c #D35E59",
"I 	c #B7241E",
"J 	c #8D0A05",
"K 	c #880500",
"L 	c #940800",
"M 	c #A40F00",
"N 	c #A91100",
"O 	c #AB1000",
"P 	c #B30D00",
"Q 	c #BC1000",
"R 	c #BC1101",
"S 	c #C71702",
"T 	c #D4250E",
"U 	c #ECBEBE",
"V 	c #D55D59",
"W 	c #BA1B0E",
"X 	c #B21C12",
"Y 	c #DA8684",
"Z 	c #FBF7F7",
"` 	c #D15952",
" .	c #BA271F",
"..	c #8E0C07",
"+.	c #850400",
"@.	c #9C0B00",
"#.	c #A81000",
"$.	c #B01000",
"%.	c #BD1301",
"&.	c #C81300",
"*.	c #E78A80",
"=.	c #EBB1AF",
"-.	c #CF4541",
";.	c #C31712",
">.	c #9E1008",
",.	c #960E08",
"'.	c #A30206",
").	c #E68D89",
"!.	c #F3C9C8",
"~.	c #F5E0DF",
"{.	c #BF3A33",
"].	c #8E0700",
"^.	c #840500",
"/.	c #970C00",
"(.	c #A00F00",
"_.	c #A51000",
":.	c #A91000",
"<.	c #AF0E00",
"[.	c #B00E00",
"}.	c #B91200",
"|.	c #BE0400",
"1.	c #E49087",
"2.	c #C6797A",
"3.	c #B61408",
"4.	c #B91109",
"5.	c #BA0805",
"6.	c #990F08",
"7.	c #9A0F08",
"8.	c #A40C0E",
"9.	c #B31B1C",
"0.	c #E3655D",
"a.	c #E6837D",
"b.	c #EFB5B3",
"c.	c #FEF8F7",
"d.	c #DCB6B4",
"e.	c #AA5856",
"f.	c #8B0800",
"g.	c #8C0000",
"h.	c #9F0F00",
"i.	c #A80F00",
"j.	c #AA0C00",
"k.	c #AA0800",
"l.	c #A80000",
"m.	c #BB2717",
"n.	c #DE8E89",
"o.	c #E2968F",
"p.	c #DD6358",
"q.	c #EBA7A2",
"r.	c #D18E8A",
"s.	c #9F0C04",
"t.	c #A70D00",
"u.	c #A10D00",
"v.	c #9C0C02",
"w.	c #9A0E08",
"x.	c #9E0B0B",
"y.	c #9F0B0B",
"z.	c #C72723",
"A.	c #DB433C",
"B.	c #E05A54",
"C.	c #E3746E",
"D.	c #ECA39F",
"E.	c #F5D8D6",
"F.	c #FDFEFE",
"G.	c #F4D3D3",
"H.	c #EAC5C1",
"I.	c #DDA8A4",
"J.	c #D6958E",
"K.	c #D48F86",
"L.	c #D5948C",
"M.	c #D7978F",
"N.	c #DEA6A1",
"O.	c #EBC8C4",
"P.	c #E1A6A5",
"Q.	c #B9190C",
"R.	c #BE1D10",
"S.	c #C6291B",
"T.	c #D3463A",
"U.	c #CB534A",
"V.	c #980E07",
"W.	c #990C04",
"X.	c #940E04",
"Y.	c #8F0D06",
"Z.	c #940D07",
"`.	c #940A09",
" +	c #980B09",
".+	c #9C0B0A",
"++	c #CD2824",
"@+	c #D33029",
"#+	c #DA3C34",
"$+	c #DE524B",
"%+	c #E56D65",
"&+	c #C85357",
"*+	c #980002",
"=+	c #A10500",
"-+	c #B20900",
";+	c #B60A00",
">+	c #BE190E",
",+	c #CA3328",
"'+	c #D64B41",
")+	c #E26F66",
"!+	c #EDADA8",
"~+	c #FDF5F4",
"{+	c #AF403E",
"]+	c #A90A00",
"^+	c #B01106",
"/+	c #B6160A",
"(+	c #BB1C0E",
"_+	c #C12012",
":+	c #C12C1F",
"<+	c #980F08",
"[+	c #9A1009",
"}+	c #890C06",
"|+	c #820C07",
"1+	c #7F0C07",
"2+	c #8D0C08",
"3+	c #910C08",
"4+	c #A60E0D",
"5+	c #BF1A18",
"6+	c #C7231F",
"7+	c #D22E27",
"8+	c #C42325",
"9+	c #A20410",
"0+	c #A0060D",
"a+	c #970503",
"b+	c #910400",
"c+	c #B00E06",
"d+	c #B41109",
"e+	c #B9160D",
"f+	c #C02318",
"g+	c #CC3D33",
"h+	c #D7574E",
"i+	c #E2736B",
"j+	c #D9807B",
"k+	c #980000",
"l+	c #970400",
"m+	c #A60800",
"n+	c #AD0E04",
"o+	c #B31308",
"p+	c #B8190C",
"q+	c #BC1C0F",
"r+	c #8D0B06",
"s+	c #900D06",
"t+	c #8F0D07",
"u+	c #760D07",
"v+	c #720D05",
"w+	c #850D07",
"x+	c #870D08",
"y+	c #AA0306",
"z+	c #B30D0C",
"A+	c #B51116",
"B+	c #A50613",
"C+	c #A0060E",
"D+	c #9E070A",
"E+	c #990705",
"F+	c #9A0600",
"G+	c #940500",
"H+	c #9F0700",
"I+	c #AD0D04",
"J+	c #B31109",
"K+	c #B8150B",
"L+	c #BF2016",
"M+	c #C93A30",
"N+	c #DA5A50",
"O+	c #9E0905",
"P+	c #9B0700",
"Q+	c #A00600",
"R+	c #9D0600",
"S+	c #A90A01",
"T+	c #AF1005",
"U+	c #BA160A",
"V+	c #7C0802",
"W+	c #830903",
"X+	c #830A03",
"Y+	c #7A0A04",
"Z+	c #8C0805",
"`+	c #A60008",
" @	c #A50412",
".@	c #A10610",
"+@	c #9E070C",
"@@	c #9C0606",
"#@	c #980701",
"$@	c #970600",
"%@	c #9B0600",
"&@	c #960500",
"*@	c #A90800",
"=@	c #AC0C04",
"-@	c #B21108",
";@	c #B8150C",
">@	c #BE1D13",
",@	c #AE1C15",
"'@	c #960600",
")@	c #950700",
"!@	c #9D0700",
"~@	c #950500",
"{@	c #9A0500",
"]@	c #A80800",
"^@	c #B10E04",
"/@	c #770500",
"(@	c #770600",
"_@	c #780500",
":@	c #A2050E",
"<@	c #A40612",
"[@	c #9F070C",
"}@	c #9D0708",
"|@	c #9A0703",
"1@	c #960700",
"2@	c #940700",
"3@	c #920500",
"4@	c #930500",
"5@	c #8F0600",
"6@	c #9B0400",
"7@	c #A70800",
"8@	c #AC0C03",
"9@	c #B11008",
"0@	c #B6150B",
"a@	c #8D0300",
"b@	c #8F0500",
"c@	c #920400",
"d@	c #980500",
"e@	c #8B0500",
"f@	c #AA0600",
"g@	c #730300",
"h@	c #6A0300",
"i@	c #6C0300",
"j@	c #990605",
"k@	c #920600",
"l@	c #8E0600",
"m@	c #8E0500",
"n@	c #8D0500",
"o@	c #890500",
"p@	c #A80700",
"q@	c #A60700",
"r@	c #AD0C03",
"s@	c #940701",
"t@	c #890600",
"u@	c #900600",
"v@	c #8C0600",
"w@	c #870500",
"x@	c #800400",
"y@	c #7A0300",
"z@	c #770200",
"A@	c #8F0B03",
"B@	c #900500",
"C@	c #8E0400",
"D@	c #890400",
"E@	c #880600",
"F@	c #9E0500",
"G@	c #820500",
"H@	c #830600",
"I@	c #820600",
"J@	c #7B0300",
"K@	c #880100",
"L@	c #8B1107",
"M@	c #8B0C05",
"N@	c #890703",
"O@	c #7C0300",
"P@	c #810400",
"Q@	c #7E0300",
"R@	c #AB0700",
"S@	c #7F0400",
"T@	c #7D0500",
"U@	c #7E0400",
"V@	c #7C0400",
"W@	c #7A0200",
"X@	c #900000",
"Y@	c #990000",
"Z@	c #8B1007",
"`@	c #891005",
" #	c #AD0E0F",
".#	c #B10C0F",
"+#	c #A4090A",
"@#	c #9B0707",
"##	c #950606",
"$#	c #900504",
"%#	c #8D0702",
"&#	c #800902",
"*#	c #810A02",
"=#	c #820B01",
"-#	c #840C02",
";#	c #870E03",
">#	c #8B0E03",
",#	c #970000",
"'#	c #960000",
")#	c #8A1005",
"!#	c #880F04",
"~#	c #B81216",
"{#	c #BA1115",
"]#	c #B60F13",
"^#	c #B30D10",
"/#	c #AF0C0F",
"(#	c #9D0C08",
"_#	c #891103",
":#	c #891003",
"<#	c #871002",
"[#	c #8B0F04",
"}#	c #890F03",
"|#	c #C5171D",
"1#	c #C2151A",
"2#	c #BF1319",
"3#	c #BB1216",
"4#	c #A8100E",
"5#	c #881003",
"6#	c #851101",
"7#	c #9F0907",
"8#	c #A40507",
"9#	c #A00304",
"0#	c #8C1004",
"a#	c #8D1005",
"b#	c #D31C25",
"c#	c #CC1B21",
"d#	c #C8181F",
"e#	c #B31514",
"f#	c #861201",
"g#	c #871202",
"h#	c #871102",
"i#	c #991008",
"j#	c #B50E12",
"k#	c #AF0B0E",
"l#	c #961309",
"m#	c #DD222B",
"n#	c #D41E27",
"o#	c #C11A1D",
"p#	c #841100",
"q#	c #871100",
"r#	c #8D1104",
"s#	c #C7161D",
"t#	c #A81812",
"u#	c #E42731",
"v#	c #D02025",
"w#	c #821000",
"x#	c #D01E24",
"y#	c #BE2424",
"z#	c #E12E35",
"A#	c #780D00",
"B#	c #C72123",
"C#	c #DD373B",
"D#	c #97180E",
"                                                                ",
"                                                                ",
"                                                                ",
"                                                                ",
"                      . + @ # $ % & * = - ;                     ",
"              > , ' ) ! ~ { ] ^ / ( _ : < [ } |                 ",
"            > 1 2 3 4 5 6 7 & 8 9 0 a b c d e f g h             ",
"          i j k l m n o p q r s t u v w x y z A B C D           ",
"        E F G H I J K L p M N O 0 u v P x y Q R S T U V         ",
"      W X Y Z `  ...+.o @.M #.s 0 $.a P x y z %.&.*.=.-.;.      ",
"    >.,.'.).!.~.{.].^.5 /.(._.:._ t <.[.b d }.|.1.> 2.3.4.5.    ",
"  6.7.8.9.0.a.b.c.d.e.f.g.6 h.^ & i.j.k.l.m.n.o.p.q.r.s.t.u.v.  ",
"  w.x.y.z.A.B.C.D.E.F.G.H.I.J.K.L.M.N.O.> P.Q.R.S.T.U.V.W.X.Y.  ",
"Z.`. +.+++@+#+$+%+&+*+=+-+;+>+,+'+)+!+~+{+]+^+/+(+_+:+<+[+}+|+1+",
"  2+3+4+5+6+7+8+9+0+a+b+c+d+e+f+g+h+i+j+k+l+m+n+o+p+q+r+s+t+u+v+",
"  w+x+y+z+A+B+C+D+E+F+G+H+I+J+K+L+M+N+O+P+Q+R+=+S+T+U+V+W+X+Y+  ",
"    Z+`+ @.@+@@@#@$@%@&@b+*@=@-@;@>@,@'@)@!@R+~@{@]@^@/@/@(@_@  ",
"    :@<@[@}@|@1@2@3@G+4@5@6@7@8@9@0@a@b@b@c@d@3@e@b@f@g@h@i@    ",
"        j@$@2@k@5@e@l@m@n@o@p@q@r@s@o@t@t@t@u@v@w@x@^.y@z@      ",
"          A@B@C@D@^.E@E@E@n &@q@F@G@H@H@G@I@K n x@J@K@          ",
"            L@M@N@4 O@x@P@P@Q@R@S@T@U@V@V@W@P@K@X@Y@            ",
"              Z@`@ #.#+#@###$#%#&#*#=#-#;#>#Y@,#'#              ",
"                )#!#~#{#]#^#/#(#_#:#:#:#<#k+,#'#                ",
"                  [#}#|#1#2#3#4#<#<#5#6#7#8#9#                  ",
"                    0#a#b#c#d#e#f#g#h#i#j#k#                    ",
"                        l#m#n#o#p#q#r#s#                        ",
"                          t#u#v#w#w#x#                          ",
"                            y#z#A#B#                            ",
"                              C#D#                              ",
"                                                                ",
"                                                                ",
"                                                                "};
